<?xml version="1.0" encoding="UTF-8"?><svg id="Layer_2" xmlns="http://www.w3.org/2000/svg" xmlns:xlink="http://www.w3.org/1999/xlink" viewBox="0 0 905 450"><defs><style>.cls-1{opacity:.37;}.cls-1,.cls-2,.cls-3,.cls-4{fill:#f2f2f2;}.cls-5,.cls-6{fill:#64d0ff;}.cls-7{filter:url(#drop-shadow-1);}.cls-7,.cls-8{fill:#4d4d4d;}.cls-2{opacity:.17;}.cls-8{filter:url(#drop-shadow-2);}.cls-9{stroke-dasharray:0 0 15.13 15.13;}.cls-9,.cls-10{fill:none;stroke:#f2f2f2;stroke-linecap:round;stroke-linejoin:round;stroke-width:4px;}.cls-3{opacity:.07;}.cls-6{filter:url(#drop-shadow-3);}</style><filter id="drop-shadow-1" filterUnits="userSpaceOnUse"><feOffset dx="7" dy="7"/><feGaussianBlur result="blur" stdDeviation="5"/><feFlood flood-color="#000" flood-opacity=".1"/><feComposite in2="blur" operator="in"/><feComposite in="SourceGraphic"/></filter><filter id="drop-shadow-2" filterUnits="userSpaceOnUse"><feOffset dx="7" dy="7"/><feGaussianBlur result="blur-2" stdDeviation="5"/><feFlood flood-color="#000" flood-opacity=".1"/><feComposite in2="blur-2" operator="in"/><feComposite in="SourceGraphic"/></filter><filter id="drop-shadow-3" filterUnits="userSpaceOnUse"><feOffset dx="7" dy="7"/><feGaussianBlur result="blur-3" stdDeviation="5"/><feFlood flood-color="#000" flood-opacity=".1"/><feComposite in2="blur-3" operator="in"/><feComposite in="SourceGraphic"/></filter></defs><g id="Layer_1-2"><path class="cls-7" d="M539.96,423.67c-124.56,28.5-229.65-89.37-233.75-201.41C302.31,115.74,389.11-.99,509.04,8.71c209.73-3.72,364.27,77.09,373.21,158.25,9.06,82.31-127.07,206.62-342.28,256.71Z"/><ellipse class="cls-8" cx="157.99" cy="218.07" rx="149.65" ry="209.92"/><path class="cls-3" d="M524.07,369.91c74.47,7.49,123.4-89.76,114.79-171.95-8.18-78.15-69.55-154.06-137.61-134.16-121.05,19.69-202.06,95.18-199.26,155.36,2.84,61.03,93.34,137.2,222.07,150.76Z"/><ellipse class="cls-3" cx="172.61" cy="228.47" rx="125.31" ry="165.27"/><path class="cls-2" d="M436.19,316.8c43.63,5.35,71.76-58.19,66.29-112.19-5.2-51.34-41.53-101.52-81.27-88.85-70.76,12.22-117.78,61.3-115.82,100.81,1.99,40.07,55.37,90.59,130.81,100.24Z"/><ellipse class="cls-2" cx="212.69" cy="218.07" rx="79.05" ry="92.13"/><path class="cls-1" d="M297.31,216.91c2.22,30.41-35.28,60.61-68.95,55.54-22.12-3.33-48.35-22.74-48.33-50.5,.02-27.97,26.68-46.71,48.33-50.5,31.02-5.42,66.9,17.22,68.95,45.46Z"/><path class="cls-1" d="M447.57,217.97c1.05,29.2-32.85,55.73-63.01,51.96-21.64-2.7-47.88-21.81-47.87-49.42,0-27.71,26.47-46.46,47.87-49.42,28.79-3.98,62,18.73,63.01,46.87Z"/><circle class="cls-6" cx="307.64" cy="224.73" r="64.46"/><ellipse class="cls-9" cx="315.66" cy="224.29" rx="225.15" ry="15.33" transform="translate(-11.87 17.73) rotate(-3.16)"/><g><line class="cls-10" x1="319.7" y1="239.27" x2="336.8" y2="237.62"/><path class="cls-4" d="M314.19,257.16c-.61-.78-.47-1.91,.31-2.53l21.7-16.95-24.54-12.5c-.89-.45-1.24-1.54-.79-2.42s1.54-1.23,2.42-.79l27.06,13.78c.55,.28,.92,.82,.97,1.43,.06,.61-.2,1.21-.68,1.59l-23.93,18.69c-.28,.22-.6,.34-.93,.37-.59,.06-1.2-.18-1.59-.68Z"/></g><path class="cls-5" d="M370.79,211.83c-20.19,1.08-41.21,2.66-63,4.85-22.48,2.26-44.03,4.98-64.61,8.05,.05-4.22,.76-29.48,21.53-48.08,17.34-15.53,37.43-16.35,42.93-16.38,7.02-.04,26.47,.98,43.23,16,15.03,13.46,18.88,30.09,19.91,35.57Z"/></g></svg>